<svg xmlns="http://www.w3.org/2000/svg" viewBox="0 0 32 32">
  <g id="social-logos">
    <path id="discord" d="M13.54052,15.40059a1.5137,1.5137,0,1,0,1.386,1.50831A1.44772,1.44772,0,0,0,13.54052,15.40059Zm4.95973,0a1.5137,1.5137,0,1,0,1.386,1.50831A1.44771,1.44771,0,0,0,18.50025,15.40059ZM25.10416,4H6.89584A2.79233,2.79233,0,0,0,4.11024,6.7992V25.17058a2.79233,2.79233,0,0,0,2.7856,2.79918H22.305l-.72018-2.51383,1.7393,1.617,1.64418,1.52189,2.92149,2.58177V6.7992A2.79233,2.79233,0,0,0,25.10416,4ZM19.85907,21.74633s-.48917-.5843-.89682-1.10065a4.2878,4.2878,0,0,0,2.45948-1.617,7.77615,7.77615,0,0,1-1.56266.80171,8.94395,8.94395,0,0,1-1.9703.5843,9.51924,9.51924,0,0,1-3.51937-.01359,11.4072,11.4072,0,0,1-1.99747-.5843,7.963,7.963,0,0,1-.992-.462c-.04077-.02718-.08153-.04077-.1223-.06794a.18768.18768,0,0,1-.05435-.04077c-.24459-.13588-.38047-.231-.38047-.231a4.22621,4.22621,0,0,0,2.378,1.60342c-.40765.51636-.91042,1.12783-.91042,1.12783A4.92671,4.92671,0,0,1,8.146,19.68091a18.1969,18.1969,0,0,1,1.95671-7.922A6.71948,6.71948,0,0,1,13.921,10.33216l.13588.16306a9.16709,9.16709,0,0,0-3.57372,1.78007s.29894-.16306.80171-.39406a10.20457,10.20457,0,0,1,3.08454-.85607,1.33967,1.33967,0,0,1,.231-.02717,11.49692,11.49692,0,0,1,2.74483-.02718,11.07678,11.07678,0,0,1,4.09008,1.30448,9.04349,9.04349,0,0,0-3.38349-1.72572l.19024-.21741a6.7195,6.7195,0,0,1,3.81831,1.42677,18.1969,18.1969,0,0,1,1.95671,7.922A4.96708,4.96708,0,0,1,19.85907,21.74633Z" fill="#262626"/>
  </g>
</svg>
