<svg xmlns="http://www.w3.org/2000/svg" viewBox="0 0 32 32">
    <path id="linkedin" d="M26.22362,4H5.77133A1.75177,1.75177,0,0,0,3.99985,5.72983V26.26822A1.75294,1.75294,0,0,0,5.77133,28H26.22362a1.75631,1.75631,0,0,0,1.77653-1.73177V5.72983A1.75514,1.75514,0,0,0,26.22362,4ZM11.118,24.45115H7.55811V12.99771H11.118ZM9.33887,11.432a2.06388,2.06388,0,1,1,2.06281-2.06453A2.06444,2.06444,0,0,1,9.33887,11.432Zm15.112,13.01918h-3.5573V18.88134c0-1.32878-.02441-3.03719-1.84977-3.03719-1.85237,0-2.136,1.447-2.136,2.941v5.666H13.35058V12.99771h3.41471v1.56487h.04738a3.73973,3.73973,0,0,1,3.368-1.84993c3.60464,0,4.27018,2.37223,4.27018,5.456Z" fill="#262626"/>
</svg>
